<svg width="24" height="24" viewBox="0 0 24 24" fill="none" xmlns="http://www.w3.org/2000/svg">
  <path
    d="M20.9178 5.5596L18.5108 7.96667C19.238 9.13805 19.6593 10.5195 19.6593 12C19.6593 16.23 16.2303 19.6589 12.0003 19.6589C7.77037 19.6589 4.34108 16.23 4.34108 12C4.34108 7.77003 7.77003 4.34108 12 4.34108C13.4869 4.34108 14.8741 4.76633 16.0488 5.49966L18.4552 3.09327C16.6421 1.77677 14.4118 1 12 1C5.92492 1 1 5.92492 1 12C1 18.0751 5.92492 23 12 23C18.0751 23 23 18.0751 23 12C23.0003 9.59461 22.2276 7.37003 20.9178 5.5596Z"
    fill="currentColor" />
  <path d="M16.0482 10.4303L18.5126 7.96597L16.0482 5.50159L13.5839 7.96597L16.0482 10.4303Z" fill="#5FA2C0" />
  <path d="M16.0482 10.4303L17.5712 8.90743L15.1068 6.44305L13.5839 7.96597L16.0482 10.4303Z" fill="#457D96" />
</svg>